<?xml version="1.0"?>
<svg xmlns="http://www.w3.org/2000/svg" id="OutLine" viewBox="0 0 512 512" width="512" height="512">
    <path fill='#e7dfcd'
          d="M74.782,232a8,8,0,0,1-7.889-9.383A192.259,192.259,0,0,1,222.618,66.893a8,8,0,1,1,2.764,15.76A176.212,176.212,0,0,0,82.653,225.382,8,8,0,0,1,74.782,232Z"/>
    <path fill='#e7dfcd'
          d="M287.99,445.229a8,8,0,0,1-1.372-15.882,176.214,176.214,0,0,0,142.73-142.729,8,8,0,1,1,15.759,2.764A192.259,192.259,0,0,1,289.382,445.107,8.051,8.051,0,0,1,287.99,445.229Z"/>
    <path fill='#e7dfcd'
          d="M256,496A240,240,0,0,1,86.294,86.294,240,240,0,1,1,425.705,425.706,238.426,238.426,0,0,1,256,496Zm0-464A224,224,0,0,0,97.608,414.392,224,224,0,0,0,414.392,97.608,222.535,222.535,0,0,0,256,32Z"/>
    <path fill='#e7dfcd'
          d="M296,296a8,8,0,0,0,0-16H240V264h48a48,48,0,0,0,0-96H232a8,8,0,0,0-8,8v72h-8a8,8,0,0,0,0,16h8v16h-8a8,8,0,0,0,0,16h8v56a8,8,0,0,0,16,0V296Zm24-80a32.036,32.036,0,0,1-32,32H240V184h48A32.036,32.036,0,0,1,320,216Z"/>
</svg>
